<?xml version="1.0" encoding="utf-8"?>
<!-- Generator: Adobe Illustrator 23.1.1, SVG Export Plug-In . SVG Version: 6.00 Build 0)  -->
<svg version="1.1" id="Calque_1" xmlns="http://www.w3.org/2000/svg" xmlns:xlink="http://www.w3.org/1999/xlink" x="0px" y="0px"
	 viewBox="0 0 1019 58" style="enable-background:new 0 0 1019 58;" xml:space="preserve">
<style type="text/css">
	.st0{fill-rule:evenodd;clip-rule:evenodd;fill:#26C1D1;}
</style>
<title>wobbly_line</title>
<path class="st0" d="M46.7,38.6c8,0.9,16,0.3,24,0.2c16.4-0.2,32.8-1.1,49.1-0.5c7.9,0.3,16.1,1.9,24,1.2c7.7-0.6,15.4-0.2,23.1-0.6
	c8.1-0.4,16.1-1.2,24.2-1c8.3,0.1,16.6,0.9,24.8,0.3c16.1-1.2,32.1,1.2,48.2,0.2c8.2-0.5,16.7-0.8,24.9-0.1
	c3.8,0.3,7.5,1.2,11.3,1.1c4.1-0.1,8.2-0.8,12.4-0.9c7.9-0.2,15.8-0.2,23.7-0.2c8,0.1,16.1-0.5,24.1-0.2c8.2,0.3,16.4,0.5,24.6,0.6
	c7.9,0,15.6,0.7,23.5,0.4c8-0.3,16.1,0.5,24.1-0.2c7.8-0.7,15.5-0.6,23.3-0.5c15.9,0.2,31.9-0.6,47.8,0.1c8.3,0.3,16.6,0.7,24.9,0.4
	c8.3-0.2,16.4-1.3,24.7-1.2c8.3,0.1,16.8,1,25.1,0.5c8.3-0.5,16.5-0.4,24.8-0.4c16,0.2,32.1-0.2,48.2,0.6c3.8,0.2,7.7,0.8,11.5,0.5
	c4-0.2,7.9-1,12-1.1c8.2-0.2,16.4,0.5,24.6,0.6c8.1,0.1,16.3,1.3,24.4,0.6c3.8-0.3,7.6-0.8,11.4-0.7c4.1,0.1,8.1,0.7,12.2,0.7
	c8.1,0,16.2-0.6,24.3-0.9c8-0.4,16,0.7,24.1,0.3c32.2-1.4,64.3-0.3,96.5,0.3c8,0.2,15.8-1.2,23.8-0.3c8,0.9,16.1,0.5,24,0.4
	c8.3-0.1,16.5-0.5,24.8-0.9c8-0.4,15.9-1.2,23.9-0.1c2.8,0.4,5.7,0.6,8.4,1.6c3.8,1.3,0,2.9-1.9,3.1c-7.7,1.2-15.8,0.5-23.6,0.6
	c-16.3,0.3-32.6-0.7-48.9-0.8c-3.8,0-7.5-0.3-11.3-0.6c-4.3-0.3-8.4,0.3-12.7,0.6c-8.2,0.6-16.4-0.1-24.6-0.2
	c-8.3-0.1-16.6-0.8-24.9-0.9c-8.4,0-16.7,0.2-25.1,0.2c-8.2,0-16.4,0.4-24.5,0.7c-7.7,0.3-15.3-0.7-23-0.9
	c-8.1-0.2-16.2,0.1-24.2,0.1c-8.1,0-16.2-1.6-24.2-0.2c-8.2,1.4-16.5,1.1-24.8,1.3c-8.4,0.2-16.6,0.1-25-0.5
	c-8.1-0.6-16.2,0.7-24.4,0c-7.9-0.7-15.8-0.6-23.7-0.5c-15.6,0.1-31.5-0.8-47,1c-16.1,1.8-32.3-0.6-48.4-0.3
	c-8.2,0.1-16.4-0.6-24.5-0.8c-8.1-0.1-16.1,0.5-24.2,0.7c-8.2,0.3-16.4,0.5-24.7,0.2c-8.2-0.2-16.3-1-24.5-0.5
	c-8.3,0.6-16.5-0.2-24.8-0.2c-8.1,0-16.1-0.1-24.2-0.4c-8-0.3-16,0.7-24.1,0.5c-8.2-0.2-16.4,0.7-24.6,0.7c-7.8,0-15.5-0.7-23.3-1.2
	c-8.1-0.5-16.1,1.4-24.2,0.6c-15.9-1.6-31.9,0.6-47.9,0.2c-7.9-0.2-15.8-1.2-23.7-0.3c-8.2,0.9-16.4,0.7-24.5,0.5
	c-7.9-0.2-15.7-0.3-23.6-0.5c-8-0.2-16.2-2.6-24.1-1c-8.1,1.6-15.9,0.9-24,0.9c-8.2,0-16.5,0.3-24.7,0.6c-8.3,0.3-16.7-0.9-25-1.3
	c-8.3-0.4-16.4,0.4-24.6,0.5c-7.9,0.2-15.9,0.1-23.8,0.3c-1,0-7.6,0.5-7.3-1.8c0.2-1.2,3.4-1.1,4.2-1.2c-0.3,0-0.6,0-0.9,0l0.7,0
	C31,38.7,38.7,37.7,46.7,38.6z"/>
</svg>
