<?xml version="1.0" encoding="utf-8"?>
<!-- Generator: Adobe Illustrator 24.2.0, SVG Export Plug-In . SVG Version: 6.00 Build 0)  -->
<svg version="1.1" id="Calque_1" xmlns="http://www.w3.org/2000/svg" xmlns:xlink="http://www.w3.org/1999/xlink" x="0px" y="0px"
	 viewBox="0 0 353 58" style="enable-background:new 0 0 353 58;" xml:space="preserve">
<style type="text/css">
	.st0{fill-rule:evenodd;clip-rule:evenodd;}
</style>
<path class="st0" d="M28.1,29.1c2.6,1.2,5.3,0.4,7.9,0.3c5.4-0.3,10.8-1.5,16.2-0.7c2.6,0.4,5.3,2.6,7.9,1.6
	c2.5-0.8,5.1-0.3,7.6-0.8c2.7-0.5,5.3-1.6,8-1.4c2.7,0.1,5.5,1.2,8.2,0.4c5.3-1.6,10.6,1.6,15.9,0.3c2.7-0.7,5.5-1.1,8.2-0.1
	c1.3,0.4,2.5,1.6,3.7,1.5c1.4-0.1,2.7-1.1,4.1-1.2c2.6-0.3,5.2-0.3,7.8-0.3c2.6,0.1,5.3-0.7,8-0.3c2.7,0.4,5.4,0.7,8.1,0.8
	c2.6,0,5.2,0.9,7.8,0.5c2.6-0.4,5.3,0.7,8-0.3c2.6-0.9,5.1-0.8,7.7-0.7c5.3,0.3,10.5-0.8,15.8,0.1c2.7,0.4,5.5,0.9,8.2,0.5
	c2.7-0.3,5.4-1.8,8.2-1.6c2.7,0.1,5.6,1.4,8.3,0.7c2.7-0.7,5.5-0.5,8.2-0.5c5.3,0.3,10.6-0.3,15.9,0.8c1.3,0.3,2.5,1.1,3.8,0.7
	c1.3-0.3,2.6-1.4,4-1.5c2.7-0.3,5.4,0.7,8.1,0.8c2.7,0.1,5.4,1.8,8.1,0.8c1.3-0.4,2.5-1.1,3.8-0.9c1.4,0.1,2.7,0.9,4,0.9
	c2.7,0,5.4-0.8,8-1.2c2.6-0.5,5.3,0.9,8,0.4c10.6-1.9,21.3-0.4,31.9,0.4c2.6,0.3,5.2-1.6,7.9-0.4c2.6,1.2,5.3,0.7,7.9,0.5
	c2.7-0.1,5.5-0.7,8.2-1.2c2.6-0.5,5.3-1.6,7.9-0.1c0.9,0.5,1.9,0.8,2.8,2.2c1.3,1.8,0,3.9-0.6,4.2c-2.5,1.6-5.2,0.7-7.8,0.8
	c-5.4,0.4-10.8-0.9-16.2-1.1c-1.3,0-2.5-0.4-3.7-0.8c-1.4-0.4-2.8,0.4-4.2,0.8c-2.7,0.8-5.4-0.1-8.1-0.3c-2.7-0.1-5.5-1.1-8.2-1.2
	c-2.8,0-5.5,0.3-8.3,0.3c-2.7,0-5.4,0.5-8.1,0.9c-2.5,0.4-5.1-0.9-7.6-1.2c-2.7-0.3-5.4,0.1-8,0.1c-2.7,0-5.4-2.2-8-0.3
	c-2.7,1.9-5.5,1.5-8.2,1.8c-2.8,0.3-5.5,0.1-8.3-0.7c-2.7-0.8-5.4,0.9-8.1,0c-2.6-0.9-5.2-0.8-7.8-0.7c-5.2,0.1-10.4-1.1-15.5,1.4
	c-5.3,2.4-10.7-0.8-16-0.4c-2.7,0.1-5.4-0.8-8.1-1.1c-2.7-0.1-5.3,0.7-8,0.9c-2.7,0.4-5.4,0.7-8.2,0.3c-2.7-0.3-5.4-1.4-8.1-0.7
	c-2.7,0.8-5.5-0.3-8.2-0.3c-2.7,0-5.3-0.1-8-0.5c-2.6-0.4-5.3,0.9-8,0.7c-2.7-0.3-5.4,0.9-8.1,0.9c-2.6,0-5.1-0.9-7.7-1.6
	c-2.7-0.7-5.3,1.9-8,0.8c-5.3-2.2-10.5,0.8-15.8,0.3c-2.6-0.3-5.2-1.6-7.8-0.4c-2.7,1.2-5.4,0.9-8.1,0.7c-2.6-0.3-5.2-0.4-7.8-0.7
	c-2.6-0.3-5.4-3.5-8-1.4C59,34,56.4,33,53.7,33c-2.7,0-5.5,0.4-8.2,0.8c-2.7,0.4-5.5-1.2-8.3-1.8c-2.7-0.5-5.4,0.5-8.1,0.7
	c-2.6,0.3-5.3,0.1-7.9,0.4c-0.3,0-2.5,0.7-2.4-2.4c0.1-1.6,1.1-1.5,1.4-1.6c-0.1,0-0.2,0-0.3,0h0.2C22.9,29.2,25.4,27.9,28.1,29.1z"
	/>
</svg>
