<?xml version="1.0" encoding="utf-8"?>
<!-- Generator: Adobe Illustrator 24.2.1, SVG Export Plug-In . SVG Version: 6.00 Build 0)  -->
<svg version="1.1" id="Calque_1" xmlns="http://www.w3.org/2000/svg" xmlns:xlink="http://www.w3.org/1999/xlink" x="0px" y="0px"
	 viewBox="0 0 713.8 58" style="enable-background:new 0 0 713.8 58;" xml:space="preserve">
<style type="text/css">
	.st0{fill-rule:evenodd;clip-rule:evenodd;}
</style>
<path class="st0" d="M27.9,29.9c5.6,1.7,11.5,0.6,17.1,0.4c11.7-0.4,23.4-2.1,35-1c5.6,0.6,11.5,3.6,17.1,2.2
	c5.4-1.1,11-0.4,16.4-1.1c5.8-0.7,11.5-2.2,17.3-1.9c5.8,0.1,11.9,1.7,17.7,0.6c11.5-2.2,22.9,2.2,34.4,0.4c5.8-1,11.9-1.5,17.7-0.1
	c2.8,0.6,5.4,2.2,8,2.1c3-0.1,5.8-1.5,8.9-1.7c5.6-0.4,11.2-0.4,16.9-0.4c5.6,0.1,11.5-1,17.3-0.4c5.8,0.6,11.7,1,17.5,1.1
	c5.6,0,11.2,1.2,16.9,0.7c5.6-0.6,11.5,1,17.3-0.4c5.6-1.2,11-1.1,16.7-1c11.5,0.4,22.7-1.1,34.2,0.1c5.8,0.6,11.9,1.2,17.7,0.7
	c5.8-0.4,11.7-2.5,17.7-2.2c5.8,0.1,12.1,1.9,18,1c5.8-1,11.9-0.7,17.7-0.7c11.5,0.4,22.9-0.4,34.4,1.1c2.8,0.4,5.4,1.5,8.2,1
	c2.8-0.4,5.6-1.9,8.7-2.1c5.8-0.4,11.7,1,17.5,1.1c5.8,0.1,11.7,2.5,17.5,1.1c2.8-0.6,5.4-1.5,8.2-1.2c3,0.1,5.8,1.2,8.7,1.2
	c5.8,0,11.7-1.1,17.3-1.7c5.6-0.7,11.5,1.2,17.3,0.6c22.9-2.6,46.1-0.6,69,0.6c5.6,0.4,11.2-2.2,17.1-0.6c5.6,1.7,11.5,1,17.1,0.7
	c5.8-0.1,11.9-1,17.7-1.7c5.6-0.7,11.5-2.2,17.1-0.1c1.9,0.7,4.1,1.1,6.1,3.1c2.8,2.5,0,5.4-1.3,5.8c-5.4,2.2-11.2,1-16.9,1.1
	c-11.7,0.6-23.4-1.2-35-1.5c-2.8,0-5.4-0.6-8-1.1c-3-0.6-6.1,0.6-9.1,1.1c-5.8,1.1-11.7-0.1-17.5-0.4c-5.8-0.1-11.9-1.5-17.7-1.7
	c-6.1,0-11.9,0.4-18,0.4c-5.8,0-11.7,0.7-17.5,1.2c-5.4,0.6-11-1.2-16.4-1.7c-5.8-0.4-11.7,0.1-17.3,0.1c-5.8,0-11.7-3.1-17.3-0.4
	c-5.8,2.6-11.9,2.1-17.7,2.5c-6.1,0.4-11.9,0.1-18-1c-5.8-1.1-11.7,1.2-17.5,0c-5.6-1.2-11.2-1.1-16.9-1
	c-11.2,0.1-22.5-1.5-33.5,1.9c-11.5,3.3-23.1-1.1-34.6-0.6c-5.8,0.1-11.7-1.1-17.5-1.5c-5.8-0.1-11.5,1-17.3,1.2
	c-5.8,0.6-11.7,1-17.7,0.4c-5.8-0.4-11.7-1.9-17.5-1c-5.8,1.1-11.9-0.4-17.7-0.4s-11.5-0.1-17.3-0.7c-5.6-0.6-11.5,1.2-17.3,1
	c-5.8-0.4-11.7,1.2-17.5,1.2c-5.6,0-11-1.2-16.7-2.2c-5.8-1-11.5,2.6-17.3,1.1c-11.5-3.1-22.7,1.1-34.2,0.4
	c-5.6-0.4-11.2-2.2-16.9-0.6c-5.8,1.7-11.7,1.2-17.5,1c-5.6-0.4-11.2-0.6-16.9-1c-5.6-0.4-11.7-4.9-17.3-1.9
	c-5.6,3.3-11.2,1.9-17.1,1.9c-5.8,0-11.9,0.6-17.7,1.1c-5.8,0.6-11.9-1.7-18-2.5c-5.8-0.7-11.7,0.7-17.5,1
	C24.4,35.3,18.6,35,13,35.4c-0.6,0-5.4,1-5.2-3.3c0.2-2.2,2.4-2.1,3-2.2c-0.2,0-0.4,0-0.6,0h0.4C16.6,30,22,28.2,27.9,29.9z"/>
</svg>
